<svg width="13" height="13" viewBox="0 0 13 13" fill="none" xmlns="http://www.w3.org/2000/svg">
<path fill-rule="evenodd" clip-rule="evenodd" d="M0.293031 1.29299C0.480558 1.10552 0.734866 1.0002 1.00003 1.0002C1.26519 1.0002 1.5195 1.10552 1.70703 1.29299L6.00003 5.58599L10.293 1.29299C10.3853 1.19748 10.4956 1.1213 10.6176 1.06889C10.7396 1.01648 10.8709 0.988893 11.0036 0.987739C11.1364 0.986585 11.2681 1.01189 11.391 1.06217C11.5139 1.11245 11.6255 1.1867 11.7194 1.28059C11.8133 1.37449 11.8876 1.48614 11.9379 1.60904C11.9881 1.73193 12.0134 1.86361 12.0123 1.99639C12.0111 2.12917 11.9835 2.26039 11.9311 2.38239C11.8787 2.5044 11.8025 2.61474 11.707 2.70699L7.41403 6.99999L11.707 11.293C11.8892 11.4816 11.99 11.7342 11.9877 11.9964C11.9854 12.2586 11.8803 12.5094 11.6948 12.6948C11.5094 12.8802 11.2586 12.9854 10.9964 12.9877C10.7342 12.9899 10.4816 12.8891 10.293 12.707L6.00003 8.41399L1.70703 12.707C1.51843 12.8891 1.26583 12.9899 1.00363 12.9877C0.741432 12.9854 0.49062 12.8802 0.305212 12.6948C0.119804 12.5094 0.0146347 12.2586 0.0123563 11.9964C0.0100779 11.7342 0.110873 11.4816 0.293031 11.293L4.58603 6.99999L0.293031 2.70699C0.10556 2.51946 0.000244141 2.26515 0.000244141 1.99999C0.000244141 1.73483 0.10556 1.48052 0.293031 1.29299Z" fill="url(#paint0_linear_623:1603)"/>
<defs>
<linearGradient id="paint0_linear_623:1603" x1="-19.0978" y1="24.0785" x2="13.3124" y2="32.6684" gradientUnits="userSpaceOnUse">
<stop stop-color="#fff"/>
<stop offset="1"/>
</linearGradient>
</defs>
</svg>
