<svg width="13" height="13" viewBox="0 0 13 13" fill="none" xmlns="http://www.w3.org/2000/svg">
<path fill-rule="evenodd" clip-rule="evenodd" d="M0.293 1.29296C0.480528 1.10549 0.734836 1.00017 1 1.00017C1.26516 1.00017 1.51947 1.10549 1.707 1.29296L6 5.58596L10.293 1.29296C10.3852 1.19745 10.4956 1.12127 10.6176 1.06886C10.7396 1.01645 10.8708 0.988862 11.0036 0.987709C11.1364 0.986555 11.2681 1.01186 11.391 1.06214C11.5139 1.11242 11.6255 1.18667 11.7194 1.28056C11.8133 1.37446 11.8875 1.48611 11.9378 1.60901C11.9881 1.7319 12.0134 1.86358 12.0123 1.99636C12.0111 2.12914 11.9835 2.26036 11.9311 2.38236C11.8787 2.50437 11.8025 2.61471 11.707 2.70696L7.414 6.99996L11.707 11.293C11.8892 11.4816 11.99 11.7342 11.9877 11.9964C11.9854 12.2586 11.8802 12.5094 11.6948 12.6948C11.5094 12.8802 11.2586 12.9854 10.9964 12.9876C10.7342 12.9899 10.4816 12.8891 10.293 12.707L6 8.41396L1.707 12.707C1.5184 12.8891 1.2658 12.9899 1.0036 12.9876C0.741402 12.9854 0.49059 12.8802 0.305182 12.6948C0.119773 12.5094 0.0146042 12.2586 0.0123258 11.9964C0.0100473 11.7342 0.110842 11.4816 0.293 11.293L4.586 6.99996L0.293 2.70696C0.105529 2.51943 0.000213623 2.26512 0.000213623 1.99996C0.000213623 1.73479 0.105529 1.48049 0.293 1.29296Z" fill="white"/>
</svg>
