<svg width="16" height="16" viewBox="0 0 16 16" fill="none" xmlns="http://www.w3.org/2000/svg">
<g clip-path="url(#clip0_212_3860)">
<path d="M1.44641 4.86405V11.136C1.44641 11.5392 1.65761 11.904 2.00961 12.1088L7.44321 15.2448C7.78881 15.4432 8.21761 15.4432 8.56321 15.2448L13.9968 12.1088C14.3424 11.9104 14.56 11.5392 14.56 11.136V4.86405C14.56 4.46085 14.3488 4.09605 13.9968 3.89125L8.56321 0.755245C8.21761 0.556845 7.78881 0.556845 7.44321 0.755245L2.00961 3.89125C1.66401 4.08965 1.45281 4.46085 1.45281 4.86405H1.44641Z" fill="#213147"/>
<path d="M9.18406 9.21592L8.40966 11.3407C8.39046 11.3983 8.39046 11.4623 8.40966 11.5263L9.74086 15.1807L11.2833 14.2911L9.43366 9.21592C9.38886 9.10072 9.22886 9.10072 9.18406 9.21592Z" fill="#12AAFF"/>
<path d="M10.7392 5.64475C10.6944 5.52955 10.5344 5.52955 10.4896 5.64475L9.71521 7.76955C9.69601 7.82715 9.69601 7.89115 9.71521 7.95515L11.8976 13.9391L13.44 13.0496L10.7392 5.65115V5.64475Z" fill="#12AAFF"/>
<path d="M8.00001 0.992C8.03841 0.992 8.07681 1.0048 8.10881 1.024L13.984 4.416C14.0544 4.4544 14.0928 4.5312 14.0928 4.608V11.392C14.0928 11.4688 14.048 11.5456 13.984 11.584L8.10881 14.976C8.07681 14.9952 8.03841 15.008 8.00001 15.008C7.96161 15.008 7.92321 14.9952 7.89121 14.976L2.01601 11.584C1.94561 11.5456 1.90721 11.4688 1.90721 11.392V4.6016C1.90721 4.5248 1.95201 4.448 2.01601 4.4096L7.89121 1.0176C7.92321 0.9984 7.96161 0.9856 8.00001 0.9856V0.992ZM8.00001 0C7.78881 0 7.58401 0.0512 7.39201 0.16L1.51681 3.552C1.13921 3.7696 0.908813 4.1664 0.908813 4.6016V11.3856C0.908813 11.8208 1.13921 12.2176 1.51681 12.4352L7.39201 15.8272C7.57761 15.936 7.78881 15.9872 8.00001 15.9872C8.21121 15.9872 8.41601 15.936 8.60801 15.8272L14.4832 12.4352C14.8608 12.2176 15.0912 11.8208 15.0912 11.3856V4.6016C15.0912 4.1664 14.8608 3.7696 14.4832 3.552L8.60161 0.16C8.41601 0.0512 8.20481 0 7.99361 0H8.00001Z" fill="#9DCCED"/>
<path d="M4.10876 13.9456L4.65276 12.4608L5.74076 13.3632L4.72316 14.2976L4.10876 13.9456Z" fill="#213147"/>
<path d="M7.50081 4.12163H6.00961C5.90081 4.12163 5.79841 4.19203 5.76001 4.29443L2.56641 13.0496L4.10881 13.9392L7.62881 4.29443C7.66081 4.20483 7.59681 4.11523 7.50721 4.11523L7.50081 4.12163Z" fill="white"/>
<path d="M10.1121 4.12163H8.62087C8.51207 4.12163 8.40967 4.19203 8.37127 4.29443L4.72327 14.2912L6.26567 15.1808L10.2337 4.29443C10.2657 4.20483 10.2017 4.11523 10.1121 4.11523V4.12163Z" fill="white"/>
</g>
<defs>
<clipPath id="clip0_212_3860">
<rect width="16" height="16" fill="white"/>
</clipPath>
</defs>
</svg>
