<svg width="17" height="16" viewBox="0 0 17 16" fill="none" xmlns="http://www.w3.org/2000/svg">
<g clip-path="url(#clip0_12445_3905)">
<path d="M1.94727 4.86405V11.136C1.94727 11.5392 2.15847 11.904 2.51047 12.1088L7.94407 15.2448C8.28967 15.4432 8.71847 15.4432 9.06407 15.2448L14.4977 12.1088C14.8433 11.9104 15.0609 11.5392 15.0609 11.136V4.86405C15.0609 4.46085 14.8497 4.09605 14.4977 3.89125L9.06407 0.755245C8.71847 0.556845 8.28967 0.556845 7.94407 0.755245L2.51047 3.89125C2.16487 4.08965 1.95367 4.46085 1.95367 4.86405H1.94727Z" fill="#213147"/>
<path d="M9.68431 9.21592L8.90991 11.3407C8.89071 11.3983 8.89071 11.4623 8.90991 11.5263L10.2411 15.1807L11.7835 14.2911L9.93391 9.21592C9.88911 9.10072 9.72911 9.10072 9.68431 9.21592Z" fill="#12AAFF"/>
<path d="M11.2396 5.64475C11.1948 5.52955 11.0348 5.52955 10.99 5.64475L10.2156 7.76955C10.1964 7.82715 10.1964 7.89115 10.2156 7.95515L12.398 13.9391L13.9404 13.0496L11.2396 5.65115V5.64475Z" fill="#12AAFF"/>
<path d="M8.50038 0.992C8.53878 0.992 8.57718 1.0048 8.60918 1.024L14.4844 4.416C14.5548 4.4544 14.5932 4.5312 14.5932 4.608V11.392C14.5932 11.4688 14.5484 11.5456 14.4844 11.584L8.60918 14.976C8.57718 14.9952 8.53878 15.008 8.50038 15.008C8.46198 15.008 8.42358 14.9952 8.39158 14.976L2.51638 11.584C2.44598 11.5456 2.40758 11.4688 2.40758 11.392V4.6016C2.40758 4.5248 2.45238 4.448 2.51638 4.4096L8.39158 1.0176C8.42358 0.9984 8.46198 0.9856 8.50038 0.9856V0.992ZM8.50038 0C8.28918 0 8.08438 0.0512 7.89238 0.16L2.01718 3.552C1.63958 3.7696 1.40918 4.1664 1.40918 4.6016V11.3856C1.40918 11.8208 1.63958 12.2176 2.01718 12.4352L7.89238 15.8272C8.07798 15.936 8.28918 15.9872 8.50038 15.9872C8.71158 15.9872 8.91638 15.936 9.10838 15.8272L14.9836 12.4352C15.3612 12.2176 15.5916 11.8208 15.5916 11.3856V4.6016C15.5916 4.1664 15.3612 3.7696 14.9836 3.552L9.10198 0.16C8.91638 0.0512 8.70518 0 8.49398 0H8.50038Z" fill="#9DCCED"/>
<path d="M4.60938 13.9456L5.15337 12.4608L6.24137 13.3632L5.22377 14.2976L4.60938 13.9456Z" fill="#213147"/>
<path d="M8.00081 4.12163H6.50961C6.40081 4.12163 6.29841 4.19203 6.26001 4.29443L3.06641 13.0496L4.60881 13.9392L8.12881 4.29443C8.16081 4.20483 8.09681 4.11523 8.00721 4.11523L8.00081 4.12163Z" fill="white"/>
<path d="M10.6124 4.12163H9.12123C9.01243 4.12163 8.91003 4.19203 8.87163 4.29443L5.22363 14.2912L6.76603 15.1808L10.734 4.29443C10.766 4.20483 10.702 4.11523 10.6124 4.11523V4.12163Z" fill="white"/>
</g>
<defs>
<clipPath id="clip0_12445_3905">
<rect width="16" height="16" fill="white" transform="translate(0.5)"/>
</clipPath>
</defs>
</svg>
