<svg width="1307" height="358" viewBox="0 0 1307 358" fill="none" xmlns="http://www.w3.org/2000/svg">
<path d="M484.491 237.23L478.565 219.317H444.626L438.566 237.23H412.842L448.667 140.53H476.545L511.966 237.23H484.491ZM461.865 168.543L451.495 199.25H471.966L461.865 168.543ZM584.564 212.583C584.564 228.61 572.713 238.577 550.895 238.577C529.076 238.577 517.225 228.341 515.743 211.641H537.831C537.831 217.701 543.352 221.607 551.299 221.607C556.551 221.607 561.265 220.395 561.265 216.624C561.265 213.391 558.841 212.045 553.857 211.102L539.581 208.543C526.922 206.253 518.841 198.981 518.841 187.264C518.841 173.257 530.693 163.425 549.682 163.425C568.672 163.425 581.871 173.526 583.218 189.688H561.13C560.591 183.897 556.147 180.395 549.817 180.395C544.43 180.395 540.928 181.876 540.928 185.109C540.928 188.206 543.218 189.149 547.797 189.957L563.15 192.786C577.157 195.344 584.564 202.213 584.564 212.583ZM659.927 212.583C659.927 228.61 648.075 238.577 626.257 238.577C604.439 238.577 592.587 228.341 591.106 211.641H613.193C613.193 217.701 618.715 221.607 626.661 221.607C631.914 221.607 636.627 220.395 636.627 216.624C636.627 213.391 634.203 212.045 629.22 211.102L614.944 208.543C602.284 206.253 594.203 198.981 594.203 187.264C594.203 173.257 606.055 163.425 625.045 163.425C644.035 163.425 657.233 173.526 658.58 189.688H636.493C635.954 183.897 631.51 180.395 625.18 180.395C619.793 180.395 616.291 181.876 616.291 185.109C616.291 188.206 618.58 189.149 623.16 189.957L638.513 192.786C652.52 195.344 659.927 202.213 659.927 212.583ZM703.775 238.442C681.418 238.442 666.468 223.358 666.468 200.866C666.468 179.183 682.091 163.425 703.64 163.425C727.613 163.425 743.64 182.954 739.465 206.792H690.307C691.519 215.95 695.829 220.529 703.236 220.529C709.701 220.529 714.01 217.836 716.03 212.583H739.061C734.616 229.149 721.822 238.442 703.775 238.442ZM703.101 180.395C696.233 180.395 692.192 184.301 690.576 192.381H714.818C714.549 185.109 709.97 180.395 703.101 180.395ZM798.581 214.604V234.671C793.463 237.499 788.614 238.577 782.15 238.577C765.853 238.577 756.291 228.88 756.291 212.314V184.839H742.823V164.772H756.291V143.493H779.321V164.772H799.119V184.839H779.321V206.927C779.321 213.93 782.284 217.162 788.614 217.162C792.385 217.162 796.022 216.22 798.581 214.604ZM882.942 239.25C855.468 239.25 833.784 217.162 833.784 188.745C833.784 160.462 855.468 138.51 882.942 138.51C909.474 138.51 929.946 156.153 933.043 181.742H906.107C904.087 169.621 895.064 161.271 883.212 161.271C868.936 161.271 859.912 172.314 859.912 188.745C859.912 205.311 868.936 216.489 883.212 216.489C894.929 216.489 903.952 208.139 906.107 195.883H933.043C929.811 221.742 909.474 239.25 882.942 239.25ZM967.382 199.115V237.23H944.352V140.53H967.382V172.584C972.635 166.927 977.887 163.425 987.045 163.425C1001.32 163.425 1011.42 172.988 1011.42 190.631V237.23H988.392V198.307C988.392 189.149 985.16 184.166 978.157 184.166C972.5 184.166 967.382 188.206 967.382 199.115ZM1068.32 237.23V230.226C1063.2 236.018 1056.87 238.577 1047.58 238.577C1032.5 238.577 1022.39 229.553 1022.39 215.816C1022.39 201.674 1033.84 193.998 1054.58 193.998C1058.49 193.998 1062.13 194.267 1065.22 194.806V191.304C1065.22 184.974 1061.59 181.472 1055.12 181.472C1048.79 181.472 1045.02 184.974 1044.21 191.304H1023.47C1024.82 174.469 1037.34 163.425 1055.26 163.425C1075.19 163.425 1086.91 174.2 1086.91 192.516V237.23H1068.32ZM1044.08 215.142C1044.08 219.856 1047.31 222.684 1052.97 222.684C1060.64 222.684 1065.22 219.048 1065.22 213.122V208.543C1061.72 207.87 1059.03 207.6 1056.06 207.6C1048.25 207.6 1044.08 210.159 1044.08 215.142ZM1127.39 147.937C1127.39 155.479 1121.33 161.001 1112.57 161.001C1103.82 161.001 1097.76 155.479 1097.76 147.937C1097.76 140.261 1103.82 134.739 1112.57 134.739C1121.33 134.739 1127.39 140.261 1127.39 147.937ZM1124.29 237.23H1101.26V164.772H1124.29V237.23ZM1162.43 199.115V237.23H1139.4V164.772H1160.55V173.526C1166.2 167.196 1172.94 163.425 1182.09 163.425C1196.37 163.425 1206.47 172.988 1206.47 190.631V237.23H1183.44V198.307C1183.44 189.149 1180.21 184.166 1173.21 184.166C1167.55 184.166 1162.43 188.206 1162.43 199.115Z" fill="#E1EBFF"/>
<path d="M145.408 196.172H111.923C102.731 196.172 94.3678 199.943 88.2883 206.022C82.2151 212.102 78.4384 220.465 78.4384 229.657C78.4384 238.849 82.2151 247.212 88.2883 253.292C94.3678 259.371 102.731 263.142 111.923 263.142C121.115 263.142 129.478 259.371 135.558 253.292C141.637 247.212 145.408 238.849 145.408 229.657V196.172ZM111.923 161.036H180.55V229.657C180.55 248.547 172.832 265.71 160.401 278.135C147.976 290.566 130.813 298.284 111.923 298.284C93.033 298.284 75.8699 290.566 63.4452 278.135C51.0142 265.71 43.2961 248.547 43.2961 229.657C43.2961 210.767 51.0142 193.61 63.4452 181.179C75.8699 168.748 93.033 161.036 111.923 161.036Z" fill="url(#paint0_linear_70_292)"/>
<path d="M283.794 161.037H317.279C326.471 161.037 334.834 157.26 340.913 151.187C346.987 145.107 350.763 136.738 350.763 127.552C350.763 118.366 346.987 109.99 340.913 103.917C334.834 97.8377 326.471 94.0673 317.279 94.0673C308.087 94.0673 299.723 97.8377 293.644 103.917C287.564 109.99 283.794 118.36 283.794 127.552V161.037ZM317.279 196.173H248.652V127.552C248.652 108.662 256.37 91.4988 268.801 79.0678C281.232 66.6367 298.389 58.925 317.279 58.925C336.169 58.925 353.332 66.643 365.757 79.0678C378.188 91.4988 385.899 108.662 385.899 127.552C385.899 146.442 378.188 163.599 365.757 176.03C353.332 188.461 336.169 196.173 317.279 196.173Z" fill="url(#paint1_linear_70_292)"/>
<path d="M283.795 161.036H317.279C326.471 161.036 334.835 157.259 340.914 151.186C344.223 147.871 346.848 143.886 348.556 139.451H384.863C382.37 153.59 375.519 166.268 365.757 176.029C353.333 188.46 336.17 196.172 317.279 196.172H267.675V139.451H283.795V161.036Z" fill="#0049E7"/>
<path d="M154.934 196.172H267.674V161.036H154.934V196.172Z" fill="url(#paint2_linear_70_292)"/>
<path d="M267.674 196.172H180.549V161.036H267.674V196.172Z" fill="#0049E7"/>
<path d="M214.605 263.711C223.948 263.711 232.457 259.878 238.638 253.697C244.819 247.516 248.652 239.007 248.652 229.657V127.552C248.652 118.202 244.819 109.693 238.638 103.512C232.457 97.3314 223.948 93.4977 214.598 93.4977C205.248 93.4977 196.746 97.3314 190.565 103.512C184.384 109.693 180.55 118.202 180.55 127.552V229.657C180.55 239.007 184.384 247.516 190.565 253.697C196.746 259.878 205.254 263.711 214.605 263.711ZM283.795 127.552V229.657C283.795 248.705 276.013 266.008 263.481 278.54C250.949 291.072 233.647 298.854 214.605 298.854C195.563 298.854 178.254 291.072 165.722 278.54C153.189 266.008 145.408 248.705 145.408 229.657V127.552C145.408 108.504 153.189 91.2013 165.722 78.669C178.254 66.1368 195.556 58.3555 214.598 58.3555C233.64 58.3555 250.949 66.1368 263.481 78.669C276.013 91.2013 283.795 108.504 283.795 127.552Z" fill="url(#paint3_linear_70_292)"/>
<path d="M203.711 95.3006C198.713 97.0087 194.228 99.8492 190.565 103.512C184.384 109.693 180.55 118.202 180.55 127.552V161.037H145.408V127.552C145.408 108.503 153.189 91.2013 165.722 78.669C175.818 68.5723 189.009 61.5629 203.711 59.2158V95.3006Z" fill="#0049E7"/>
<path d="M147.47 110.787H185.003C186.528 108.118 188.401 105.676 190.564 103.512C196.745 97.3314 205.254 93.4977 214.598 93.4977C223.941 93.4977 232.456 97.3314 238.637 103.512C244.818 109.693 248.652 118.202 248.652 127.552C248.652 109.952 255.351 93.852 266.321 81.6803C265.404 80.6491 264.455 79.6433 263.48 78.669C250.948 66.1368 233.646 58.3555 214.598 58.3555C195.549 58.3555 178.253 66.1368 165.721 78.669C156.991 87.3992 150.563 98.4448 147.47 110.787Z" fill="#0049E7"/>
<path d="M203.711 261.079C198.713 259.371 194.228 256.531 190.565 252.868C184.384 246.687 180.544 238.172 180.544 228.828V195.344H145.408V228.828C145.408 247.877 153.189 265.179 165.722 277.711C175.812 287.808 189.002 294.817 203.711 297.158V261.079Z" fill="#0049E7"/>
<path d="M44.4037 246.011H81.9373C83.4619 248.674 85.3345 251.116 87.498 253.28C93.6788 259.46 102.188 263.294 111.531 263.294C120.875 263.294 129.39 259.46 135.571 253.28C141.752 247.099 145.586 238.59 145.586 229.246C145.586 246.846 152.285 262.94 163.255 275.112C162.337 276.143 161.388 277.149 160.414 278.123C147.882 290.655 130.58 298.436 111.531 298.436C92.4831 298.436 75.1808 290.655 62.6486 278.123C53.9184 269.393 47.4972 258.347 44.4037 246.011Z" fill="#0049E7"/>
<defs>
<linearGradient id="paint0_linear_70_292" x1="-3.90388" y1="295.956" x2="425.167" y2="50.359" gradientUnits="userSpaceOnUse">
<stop stop-color="#54CDEE"/>
<stop offset="0.49" stop-color="#0463EF"/>
<stop offset="1" stop-color="#51F5EA"/>
</linearGradient>
<linearGradient id="paint1_linear_70_292" x1="2.75099" y1="307.584" x2="431.821" y2="61.9869" gradientUnits="userSpaceOnUse">
<stop stop-color="#F98AFE"/>
<stop offset="0.49" stop-color="#0463EF"/>
<stop offset="1" stop-color="#51F5EA"/>
</linearGradient>
<linearGradient id="paint2_linear_70_292" x1="-1.39322" y1="300.346" x2="427.677" y2="54.7559" gradientUnits="userSpaceOnUse">
<stop stop-color="#F98AFE"/>
<stop offset="0.49" stop-color="#0463EF"/>
<stop offset="1" stop-color="#51F5EA"/>
</linearGradient>
<linearGradient id="paint3_linear_70_292" x1="-0.576009" y1="301.77" x2="428.494" y2="56.1728" gradientUnits="userSpaceOnUse">
<stop stop-color="#5CDDFF"/>
<stop offset="0.49" stop-color="#0463EF"/>
<stop offset="1" stop-color="#51F5EA"/>
</linearGradient>
</defs>
</svg>
