<svg width="107" height="44" viewBox="0 0 107 44" fill="none" xmlns="http://www.w3.org/2000/svg">
<path d="M35.863 23.9258H44.0864V25.7368H37.9765V29.612H43.3178V31.4425H37.9765V36.9145H35.863V23.9258Z" fill="#A3A8BB"/>
<path d="M46.3657 23.7305H48.5178V25.5804H46.3657V23.7305ZM46.4234 27.1967H48.4407L48.4598 36.9139H46.4234V27.1967Z" fill="#A3A8BB"/>
<path d="M51.3564 27.9359C51.9328 27.6373 52.6308 27.3972 53.4506 27.2154C54.2833 27.0207 55.0774 26.9233 55.8335 26.9233C57.1782 26.9233 58.1711 27.2089 58.8111 27.7801C59.4517 28.3514 59.7722 29.2406 59.7722 30.448V36.9131H57.7545V30.7206C57.7545 29.3575 56.9923 28.6759 55.4683 28.6759C54.7383 28.6759 54.0398 28.7992 53.3741 29.0459V36.9131H51.3564V27.9359Z" fill="#A3A8BB"/>
<path d="M66.7849 26.9233C67.8354 26.9233 68.7255 27.183 69.4555 27.7023C70.1987 28.2086 70.5639 29.0329 70.551 30.1754V34.8489C70.551 35.7317 70.1664 36.3484 69.3979 36.6989C68.6295 37.0365 67.5344 37.2052 66.1126 37.2052C64.9727 37.2052 64.0312 36.965 63.288 36.4847C62.5452 36.0044 62.1738 35.1995 62.1738 34.07C62.1738 33.0055 62.4748 32.2071 63.0768 31.6748C63.6917 31.1426 64.5562 30.8764 65.6708 30.8764C66.8235 30.8764 67.784 31.1101 68.5524 31.5774V30.6427C68.5524 29.3185 67.765 28.6564 66.1896 28.6564C65.6256 28.6564 65.0621 28.7473 64.4986 28.9291C63.9352 29.0978 63.4677 29.338 63.0959 29.6496V27.7412C63.4549 27.5075 63.9737 27.3128 64.6522 27.157C65.3441 27.0012 66.055 26.9233 66.7849 26.9233ZM66.3432 35.6084C67.1501 35.6084 67.7203 35.55 68.0532 35.4332C68.386 35.3163 68.5524 35.0826 68.5524 34.7321V32.8432C67.8996 32.5576 67.182 32.4148 66.4007 32.4148C65.6708 32.4148 65.1135 32.5446 64.7293 32.8043C64.3579 33.0639 64.172 33.4534 64.172 33.9727C64.172 34.5179 64.3831 34.9268 64.8058 35.1995C65.2414 35.4721 65.754 35.6084 66.3432 35.6084Z" fill="#A3A8BB"/>
<path d="M73.4053 27.9359C73.9816 27.6373 74.6797 27.3972 75.4995 27.2154C76.3321 27.0207 77.1262 26.9233 77.8818 26.9233C79.2271 26.9233 80.2195 27.2089 80.86 27.7801C81.5005 28.3514 81.8205 29.2406 81.8205 30.448V36.9131H79.8034V30.7206C79.8034 29.3575 79.0411 28.6759 77.5166 28.6759C76.7867 28.6759 76.0886 28.7992 75.4224 29.0459V36.9131H73.4053V27.9359Z" fill="#A3A8BB"/>
<path d="M88.9068 37.1078C87.5492 37.1078 86.4156 36.7119 85.5064 35.92C84.6095 35.1281 84.1611 33.8493 84.1611 32.0838C84.1611 30.2662 84.6034 28.955 85.4869 28.1501C86.3837 27.3323 87.5173 26.9233 88.8878 26.9233C89.9254 26.9233 90.9116 27.118 91.8465 27.5075V29.338C90.8731 28.9226 89.9829 28.7149 89.176 28.7149C88.1641 28.7149 87.4085 28.9745 86.9087 29.4938C86.4094 30.0001 86.1593 30.8115 86.1593 31.9279C86.1593 33.0963 86.4027 33.9532 86.8897 34.4984C87.3761 35.0307 88.1574 35.2968 89.2335 35.2968C90.1046 35.2968 90.982 35.0826 91.866 34.6542V36.4847C90.9435 36.9002 89.9572 37.1078 88.9068 37.1078Z" fill="#A3A8BB"/>
<path d="M98.1711 26.9048C99.6699 26.9048 100.765 27.3981 101.457 28.3848C102.161 29.3584 102.507 30.728 102.495 32.4936H95.7312C95.7954 33.4543 96.0707 34.1878 96.5572 34.6941C97.057 35.1874 97.7612 35.4341 98.6709 35.4341C99.2601 35.4341 99.8235 35.3627 100.362 35.2199C100.9 35.0641 101.374 34.8693 101.784 34.6357V36.5441C100.785 36.9854 99.6381 37.2062 98.3442 37.2062C96.8967 37.2062 95.7569 36.7647 94.9243 35.882C94.1045 34.9862 93.6946 33.7204 93.6946 32.0847C93.6946 30.41 94.0855 29.1312 94.8667 28.2484C95.648 27.3527 96.7493 26.9048 98.1711 26.9048ZM98.1136 28.5795C97.435 28.5795 96.9034 28.7612 96.5192 29.1247C96.1345 29.4882 95.8848 30.1049 95.7697 30.9747H100.438C100.349 30.1438 100.118 29.5401 99.747 29.1637C99.3756 28.7742 98.8311 28.5795 98.1136 28.5795Z" fill="#A3A8BB"/>
<path d="M26.4329 5.97607C28.3892 5.97607 29.975 7.58338 29.975 9.56602V33.9777C29.975 35.9604 28.3892 37.5677 26.4329 37.5677C24.4767 37.5677 22.8909 35.9604 22.8909 33.9777V9.56602C22.8909 7.58338 24.4767 5.97607 26.4329 5.97607Z" fill="#A3A8BB"/>
<path d="M16.8341 16.0288C18.6141 16.0288 20.0571 17.4913 20.0571 19.2954V28.0063C20.0571 29.8103 18.6141 31.2728 16.8341 31.2728C15.054 31.2728 13.6111 29.8103 13.6111 28.0063V19.2954C13.6111 17.4913 15.054 16.0288 16.8341 16.0288Z" fill="#A3A8BB"/>
<path d="M11.5566 14.987C11.5566 13.1829 10.1136 11.7205 8.33357 11.7205C6.55356 11.7205 5.1106 13.1829 5.1106 14.987V16.0759C5.1106 17.88 6.55356 19.3424 8.33357 19.3424C10.1136 19.3424 11.5566 17.88 11.5566 16.0759V14.987Z" fill="#A3A8BB"/>
<path d="M16.8341 7.4126C18.6141 7.4126 20.0571 8.87507 20.0571 10.6792V11.768C20.0571 13.5721 18.6141 15.0346 16.8341 15.0346C15.054 15.0346 13.6111 13.5721 13.6111 11.768V10.6792C13.6111 8.87507 15.054 7.4126 16.8341 7.4126Z" fill="#A3A8BB"/>
<path d="M43.8004 18.1651L41.2041 14.3093L38.8962 18.1651H35.741L39.7256 12.0981L35.5967 5.97632H39.2207L41.8351 9.85042L44.0709 5.97632H47.2983L43.3497 12.0981L47.4245 18.1651H43.8004Z" fill="#A3A8BB"/>
<path d="M48.8962 5.97607H57.136V8.26032H51.8173V10.9101H56.4332V13.2126H51.8173V15.8806H57.136V18.1649H48.8962V5.97607Z" fill="#A3A8BB"/>
<path d="M70.0782 5.97607V18.1649H67.8785L62.2712 10.7456V18.1649H59.585V5.97607H62.0729L67.392 13.2309V5.97607H70.0782Z" fill="#A3A8BB"/>
<path d="M72.6306 5.97607H77.4624C79.4819 5.97607 80.9784 6.48776 81.9522 7.51108C82.9256 8.52226 83.4125 10.0451 83.4125 12.0796C83.4125 14.1019 82.9256 15.6247 81.9522 16.6481C80.9784 17.6593 79.4819 18.1649 77.4624 18.1649H72.6306V5.97607ZM77.12 15.8806C78.2137 15.8806 79.0373 15.5699 79.5898 14.9486C80.1429 14.3273 80.4196 13.371 80.4196 12.0796C80.4196 10.7639 80.1429 9.80145 79.5898 9.19231C79.0373 8.57099 78.2137 8.26032 77.12 8.26032H75.5513V15.8806H77.12Z" fill="#A3A8BB"/>
</svg>
