<svg width="18" height="18" viewBox="0 0 18 18" fill="none" xmlns="http://www.w3.org/2000/svg">
<path fill-rule="evenodd" clip-rule="evenodd" d="M13.4997 0H4.49989C2.02517 0 0 2.02517 0 4.49989V13.5001C0 15.9742 2.02517 18 4.49989 18H13.4997C15.9744 18 17.9996 15.9742 17.9996 13.5001V4.49989C17.9996 2.02517 15.9744 0 13.4997 0ZM16.4995 13.5001C16.4995 15.1538 15.1543 16.5 13.4997 16.5H4.49989C2.84596 16.5 1.50004 15.1538 1.50004 13.5001V4.49989C1.50004 2.84574 2.84596 1.50004 4.49989 1.50004H13.4997C15.1543 1.50004 16.4995 2.84574 16.4995 4.49989V13.5001ZM13.8754 5.24995C14.4967 5.24995 15.0004 4.74628 15.0004 4.12497C15.0004 3.50367 14.4967 3 13.8754 3C13.2541 3 12.7505 3.50367 12.7505 4.12497C12.7505 4.74628 13.2541 5.24995 13.8754 5.24995ZM4.49991 8.99989C4.49991 6.51436 6.51405 4.5 8.9998 4.5C11.4848 4.5 13.4997 6.51436 13.4997 8.99989C13.4997 11.4845 11.4848 13.5002 8.9998 13.5002C6.51405 13.5002 4.49991 11.4845 4.49991 8.99989ZM5.99995 8.99989C5.99995 10.657 7.34314 12.0002 8.9998 12.0002C10.6565 12.0002 11.9997 10.657 11.9997 8.99989C11.9997 7.3428 10.6565 6.00004 8.9998 6.00004C7.34314 6.00004 5.99995 7.3428 5.99995 8.99989Z" fill="white"/>
</svg>
