<svg width="18" height="18" viewBox="0 0 18 18" fill="none" xmlns="http://www.w3.org/2000/svg">
<path d="M11.5376 0.0409126L1.13147 0.776476C0.292148 0.846129 0 1.37112 0 2.00049V12.9192C0 13.4094 0.181758 13.8288 0.620578 14.3892L3.06668 17.4335C3.46852 17.9237 3.83393 18.0287 4.60125 17.9939L16.6854 17.2938C17.7072 17.2241 18 16.7688 18 15.9989V3.7153C18 3.3175 17.8357 3.20289 17.3524 2.86331L17.2691 2.8057L13.9479 0.565902C13.1442 0.00672537 12.8159 -0.0640718 11.5376 0.0409126ZM4.87456 3.51428C3.88786 3.57788 3.66405 3.59228 3.10366 3.15605L1.67878 2.07128C1.53394 1.9309 1.60664 1.75566 1.97149 1.72086L11.9751 1.02131C12.8152 0.951114 13.2527 1.23127 13.5812 1.4761L15.2969 2.66593C15.3702 2.70126 15.5527 2.91069 15.3333 2.91069L5.00245 3.50587L4.87456 3.51428ZM3.72424 15.894V5.46605C3.72424 5.01064 3.87028 4.80068 4.30784 4.76528L16.1733 4.10044C16.5758 4.06565 16.7576 4.31041 16.7576 4.76528V15.1235C16.7576 15.5789 16.6842 15.9641 16.0272 15.9989L4.67269 16.6289C4.01576 16.6637 3.72424 16.4543 3.72424 15.894ZM14.9328 6.02516C15.0055 6.34018 14.9328 6.6552 14.6036 6.6912L14.0564 6.79498V14.4941C13.5812 14.7389 13.1437 14.8787 12.7781 14.8787C12.1939 14.8787 12.0478 14.7035 11.6103 14.1791L8.03152 8.78995V14.0039L9.16355 14.2493C9.16355 14.2493 9.16355 14.8793 8.25026 14.8793L5.73209 15.0191C5.65875 14.8787 5.73209 14.5289 5.98732 14.4593L6.64481 14.2847V7.39083L5.73216 7.32003C5.65875 7.00508 5.84114 6.55021 6.35273 6.51481L9.05456 6.34085L12.7782 11.7996V6.97029L11.8291 6.86584C11.7558 6.48002 12.0478 6.19986 12.4127 6.16567L14.9327 6.02522L14.9328 6.02516Z" fill="white"/>
</svg>
