<svg width="150" height="36" viewBox="0 0 150 36" fill="none" xmlns="http://www.w3.org/2000/svg">
<g clip-path="url(#clip0_2447_1448)">
<path d="M62.5661 26.7879L61.856 24.647H57.7891L57.063 26.7879H53.9805L58.2734 15.2298H61.6138L65.8582 26.7879H62.5661ZM59.8548 18.5781L58.6122 22.2484H61.0652L59.8548 18.5781ZM74.5573 23.8422C74.5573 25.7576 73.1372 26.949 70.5229 26.949C67.9084 26.949 66.4882 25.7254 66.3107 23.7294H68.9575C68.9575 24.4537 69.619 24.9206 70.5711 24.9206C71.2007 24.9206 71.7655 24.7757 71.7655 24.325C71.7655 23.9387 71.475 23.7776 70.8779 23.6651L69.1672 23.3591C67.6503 23.0855 66.682 22.2162 66.682 20.8157C66.682 19.1415 68.1021 17.9664 70.3776 17.9664C72.6531 17.9664 74.2345 19.1737 74.396 21.1055H71.7493C71.6848 20.4132 71.1522 19.9947 70.3936 19.9947C69.7483 19.9947 69.3285 20.1718 69.3285 20.5581C69.3285 20.9284 69.603 21.0411 70.1516 21.1377L71.9913 21.4757C73.6697 21.7816 74.5573 22.6026 74.5573 23.8422ZM83.5878 23.8422C83.5878 25.7576 82.1676 26.949 79.5531 26.949C76.9388 26.949 75.5187 25.7254 75.3411 23.7294H77.9877C77.9877 24.4537 78.6495 24.9206 79.6016 24.9206C80.2309 24.9206 80.7957 24.7757 80.7957 24.325C80.7957 23.9387 80.5054 23.7776 79.9081 23.6651L78.1977 23.3591C76.6805 23.0855 75.7124 22.2162 75.7124 20.8157C75.7124 19.1415 77.1326 17.9664 79.4078 17.9664C81.6833 17.9664 83.265 19.1737 83.4263 21.1055H80.7797C80.7152 20.4132 80.1826 19.9947 79.4241 19.9947C78.7785 19.9947 78.359 20.1718 78.359 20.5581C78.359 20.9284 78.6332 21.0411 79.182 21.1377L81.0217 21.4757C82.7002 21.7816 83.5878 22.6026 83.5878 23.8422ZM88.8418 26.9328C86.1628 26.9328 84.3716 25.1298 84.3716 22.4416C84.3716 19.8498 86.2435 17.9664 88.8256 17.9664C91.6981 17.9664 93.6186 20.3006 93.1183 23.1498H87.2279C87.3732 24.2445 87.8897 24.7919 88.7773 24.7919C89.5519 24.7919 90.0682 24.4699 90.3102 23.8422H93.07C92.5375 25.8222 91.0043 26.9328 88.8418 26.9328ZM88.7611 19.9947C87.938 19.9947 87.4539 20.4616 87.2602 21.4274H90.165C90.1327 20.5581 89.5842 19.9947 88.7611 19.9947ZM100.202 24.0836V26.4821C99.5886 26.82 99.0078 26.949 98.2332 26.949C96.2805 26.949 95.1346 25.79 95.1346 23.8098V20.5259H93.5207V18.1274H95.1346V15.5839H97.8941V18.1274H100.266V20.5259H97.8941V23.166C97.8941 24.003 98.2492 24.3894 99.0078 24.3894C99.4596 24.3894 99.8953 24.2766 100.202 24.0836ZM110.311 27.0295C107.018 27.0295 104.42 24.3894 104.42 20.9928C104.42 17.6122 107.018 14.9883 110.311 14.9883C113.49 14.9883 115.943 17.0971 116.314 20.1557H113.086C112.844 18.7069 111.763 17.7088 110.343 17.7088C108.632 17.7088 107.551 19.0288 107.551 20.9928C107.551 22.9728 108.632 24.3088 110.343 24.3088C111.747 24.3088 112.828 23.3109 113.086 21.846H116.314C115.927 24.9368 113.49 27.0295 110.311 27.0295ZM120.429 22.2323V26.7879H117.669V15.2298H120.429V19.061C121.058 18.3849 121.688 17.9664 122.785 17.9664C124.496 17.9664 125.706 19.1093 125.706 21.2181V26.7879H122.946V22.1357C122.946 21.0411 122.559 20.4454 121.72 20.4454C121.042 20.4454 120.429 20.9284 120.429 22.2323ZM132.524 26.7879V25.9509C131.91 26.643 131.152 26.949 130.038 26.949C128.231 26.949 127.021 25.8703 127.021 24.2285C127.021 22.5381 128.392 21.6206 130.877 21.6206C131.345 21.6206 131.781 21.6528 132.153 21.7172V21.2986C132.153 20.542 131.717 20.1235 130.942 20.1235C130.184 20.1235 129.732 20.542 129.635 21.2986H127.15C127.311 19.2864 128.812 17.9664 130.958 17.9664C133.347 17.9664 134.751 19.2542 134.751 21.4435V26.7879H132.524ZM129.619 24.1479C129.619 24.7113 130.006 25.0493 130.684 25.0493C131.604 25.0493 132.153 24.6148 132.153 23.9065V23.3591C131.733 23.2785 131.41 23.2464 131.055 23.2464C130.119 23.2464 129.619 23.5524 129.619 24.1479ZM139.601 16.1152C139.601 17.0166 138.875 17.6766 137.826 17.6766C136.777 17.6766 136.051 17.0166 136.051 16.1152C136.051 15.1976 136.777 14.5376 137.826 14.5376C138.875 14.5376 139.601 15.1976 139.601 16.1152ZM139.23 26.7879H136.471V18.1274H139.23V26.7879ZM143.8 22.2323V26.7879H141.041V18.1274H143.574V19.1737C144.252 18.4171 145.059 17.9664 146.157 17.9664C147.867 17.9664 149.078 19.1093 149.078 21.2181V26.7879H146.318V22.1357C146.318 21.0411 145.931 20.4454 145.092 20.4454C144.414 20.4454 143.8 20.9284 143.8 22.2323Z" fill="#E1EBFF"/>
<path d="M105.738 32.888C105.738 33.6937 105.143 34.1662 104.183 34.1662H102.477V29.8167H104.116C105.033 29.8167 105.598 30.2287 105.598 30.9737C105.598 31.3735 105.373 31.6946 104.985 31.8946C105.47 32.064 105.738 32.4094 105.738 32.888ZM104.043 30.5437H103.315V31.5553H104.043C104.493 31.5553 104.724 31.3614 104.724 31.0464C104.724 30.7374 104.493 30.5437 104.043 30.5437ZM104.11 32.2884H103.315V33.4392H104.11C104.608 33.4392 104.869 33.2212 104.869 32.8518C104.869 32.5064 104.608 32.2884 104.11 32.2884ZM109.198 30.9314L107.619 35.3353H106.702L107.163 34.13L105.888 30.9314H106.799L107.612 33.1485L108.353 30.9314H109.198ZM111.675 34.1662H110.594L111.961 31.943L110.734 29.8167H111.809L112.659 31.3735L113.564 29.8167H114.596L113.327 31.9794L114.675 34.1662H113.588L112.635 32.5307L111.675 34.1662ZM116.362 34.2207C115.39 34.2207 114.74 33.5484 114.74 32.5368C114.74 31.5735 115.415 30.8706 116.35 30.8706C117.376 30.8706 118.056 31.7007 117.905 32.7548H115.603C115.658 33.2817 115.913 33.5727 116.344 33.5727C116.714 33.5727 116.963 33.3909 117.06 33.0698H117.899C117.716 33.8028 117.152 34.2207 116.362 34.2207ZM116.332 31.4887C115.937 31.4887 115.688 31.7432 115.615 32.2218H117.012C116.988 31.7733 116.732 31.4887 116.332 31.4887ZM119.314 32.4033V34.1662H118.47V30.9314H119.247V31.3917C119.484 31.0707 119.818 30.8706 120.243 30.8706C120.893 30.8706 121.342 31.2948 121.342 32.0762V34.1662H120.505V32.361C120.505 31.8825 120.316 31.6158 119.934 31.6158C119.6 31.6158 119.314 31.8825 119.314 32.4033ZM121.857 32.5487C121.857 31.5915 122.422 30.8706 123.297 30.8706C123.685 30.8706 124.013 31.0403 124.256 31.3492V29.8167H125.094V34.1662H124.323V33.6998C124.068 34.0391 123.716 34.2267 123.297 34.2267C122.422 34.2267 121.857 33.4939 121.857 32.5487ZM122.726 32.5487C122.726 33.1546 123.072 33.4757 123.485 33.4757C123.904 33.4757 124.25 33.1485 124.25 32.5368C124.25 31.9248 123.898 31.6158 123.485 31.6158C123.072 31.6158 122.726 31.9308 122.726 32.5487ZM128.113 34.1662H127.19V29.8167H130.008V30.6164H128.113V31.7128H129.71V32.5064H128.113V34.1662ZM131.547 30.1801C131.547 30.465 131.316 30.6769 130.982 30.6769C130.654 30.6769 130.423 30.465 130.423 30.1801C130.423 29.8833 130.654 29.6714 130.982 29.6714C131.316 29.6714 131.547 29.8833 131.547 30.1801ZM131.413 34.1662H130.569V30.9314H131.413V34.1662ZM133.008 32.4033V34.1662H132.164V30.9314H132.941V31.3917C133.178 31.0707 133.512 30.8706 133.938 30.8706C134.587 30.8706 135.037 31.2948 135.037 32.0762V34.1662H134.199V32.361C134.199 31.8825 134.01 31.6158 133.628 31.6158C133.294 31.6158 133.008 31.8825 133.008 32.4033ZM137.695 34.1662V33.7664C137.483 34.0692 137.161 34.2267 136.718 34.2267C136.043 34.2267 135.594 33.833 135.594 33.2273C135.594 32.5973 136.104 32.258 137.051 32.258C137.234 32.258 137.392 32.2701 137.592 32.2944V32.1005C137.592 31.7371 137.386 31.5249 137.033 31.5249C136.669 31.5249 136.45 31.7371 136.42 32.1005H135.661C135.709 31.3553 136.25 30.8706 137.033 30.8706C137.884 30.8706 138.382 31.3373 138.382 32.1309V34.1662H137.695ZM136.39 33.203C136.39 33.4757 136.584 33.6453 136.9 33.6453C137.331 33.6453 137.592 33.4091 137.592 33.0333V32.8032C137.392 32.773 137.252 32.7609 137.106 32.7609C136.626 32.7609 136.39 32.9123 136.39 33.203ZM139.953 32.4033V34.1662H139.109V30.9314H139.886V31.3917C140.123 31.0707 140.457 30.8706 140.882 30.8706C141.532 30.8706 141.982 31.2948 141.982 32.0762V34.1662H141.143V32.361C141.143 31.8825 140.955 31.6158 140.572 31.6158C140.239 31.6158 139.953 31.8825 139.953 32.4033ZM144.075 34.2267C143.14 34.2267 142.496 33.5362 142.496 32.5487C142.496 31.5796 143.164 30.8706 144.075 30.8706C144.92 30.8706 145.545 31.4401 145.648 32.3124H144.762C144.719 31.8825 144.458 31.6158 144.075 31.6158C143.638 31.6158 143.359 31.9734 143.359 32.5487C143.359 33.1303 143.632 33.4818 144.075 33.4818C144.464 33.4818 144.713 33.2273 144.762 32.7849H145.648C145.551 33.6755 144.944 34.2267 144.075 34.2267ZM147.587 34.2207C146.616 34.2207 145.966 33.5484 145.966 32.5368C145.966 31.5735 146.64 30.8706 147.575 30.8706C148.602 30.8706 149.282 31.7007 149.13 32.7548H146.828C146.883 33.2817 147.138 33.5727 147.569 33.5727C147.94 33.5727 148.189 33.3909 148.286 33.0698H149.124C148.942 33.8028 148.377 34.2207 147.587 34.2207ZM147.557 31.4887C147.162 31.4887 146.913 31.7432 146.84 32.2218H148.237C148.213 31.7733 147.958 31.4887 147.557 31.4887Z" fill="#636E86"/>
<path d="M14.8806 20.0335H10.0009C8.66136 20.0335 7.44259 20.5816 6.55665 21.4653C5.6716 22.3491 5.12123 23.5648 5.12123 24.9011C5.12123 26.2371 5.6716 27.4528 6.55665 28.3366C7.44259 29.2204 8.66136 29.7685 10.0009 29.7685C11.3404 29.7685 12.5592 29.2204 13.4452 28.3366C14.3311 27.4528 14.8806 26.2371 14.8806 24.9011V20.0335ZM10.0009 14.926H20.0018V24.9011C20.0018 27.647 18.8771 30.1418 17.0655 31.9479C15.2549 33.7551 12.7537 34.8769 10.0009 34.8769C7.24807 34.8769 4.74692 33.7551 2.9363 31.9479C1.12473 30.1418 0 27.647 0 24.9011C0 22.155 1.12473 19.6611 2.9363 17.8541C4.74692 16.047 7.24807 14.926 10.0009 14.926Z" fill="url(#paint0_linear_2447_1448)"/>
<path d="M35.047 14.9261H39.9266C41.2662 14.9261 42.485 14.3771 43.371 13.4943C44.2559 12.6106 44.8062 11.3939 44.8062 10.0587C44.8062 8.7234 44.2559 7.50584 43.371 6.623C42.485 5.73927 41.2662 5.19117 39.9266 5.19117C38.587 5.19117 37.3683 5.73927 36.4822 6.623C35.5965 7.50584 35.047 8.72248 35.047 10.0587V14.9261ZM39.9266 20.0336H29.9258V10.0587C29.9258 7.31272 31.0504 4.81781 32.8619 3.01079C34.6734 1.20376 37.1738 0.0827637 39.9266 0.0827637C42.6794 0.0827637 45.1807 1.20468 46.9913 3.01079C48.8028 4.81781 49.9265 7.31272 49.9265 10.0587C49.9265 12.8046 48.8028 15.2986 46.9913 17.1056C45.1807 18.9126 42.6794 20.0336 39.9266 20.0336Z" fill="url(#paint1_linear_2447_1448)"/>
<path d="M35.0482 14.926H39.9279C41.2675 14.926 42.4862 14.377 43.3722 13.4942C43.8543 13.0123 44.2368 12.433 44.4858 11.7883H49.7767C49.4135 13.8436 48.4149 15.6865 46.9925 17.1055C45.1819 18.9125 42.6806 20.0335 39.9279 20.0335H32.6992V11.7883H35.0482V14.926Z" fill="#0049E7"/>
<path d="M16.2695 20.0335H32.6988V14.926H16.2695V20.0335Z" fill="url(#paint2_linear_2447_1448)"/>
<path d="M32.6967 20.0335H20V14.926H32.6967V20.0335Z" fill="#0049E7"/>
<path d="M24.9629 29.8514C26.3244 29.8514 27.5645 29.2941 28.4652 28.3957C29.3659 27.4973 29.9246 26.2602 29.9246 24.9012V10.0587C29.9246 8.69949 29.3659 7.46262 28.4652 6.56415C27.5645 5.6657 26.3244 5.10842 24.962 5.10842C23.5993 5.10842 22.3602 5.6657 21.4595 6.56415C20.5588 7.46262 20.0001 8.69949 20.0001 10.0587V24.9012C20.0001 26.2602 20.5588 27.4973 21.4595 28.3957C22.3602 29.2941 23.6002 29.8514 24.9629 29.8514ZM35.0458 10.0587V24.9012C35.0458 27.6701 33.9119 30.1851 32.0855 32.0069C30.2591 33.8288 27.7377 34.9598 24.9629 34.9598C22.1878 34.9598 19.6655 33.8288 17.8392 32.0069C16.0129 30.1851 14.8789 27.6701 14.8789 24.9012V10.0587C14.8789 7.28973 16.0129 4.77461 17.8392 2.95286C19.6655 1.13112 22.1869 0 24.962 0C27.7368 0 30.2591 1.13112 32.0855 2.95286C33.9119 4.77461 35.0458 7.28973 35.0458 10.0587Z" fill="url(#paint3_linear_2447_1448)"/>
<path d="M23.3753 5.37068C22.647 5.61897 21.9933 6.03189 21.4595 6.56433C20.5588 7.46277 20.0001 8.69967 20.0001 10.0588V14.9263H14.8789V10.0588C14.8789 7.28991 16.0129 4.77477 17.8392 2.95303C19.3105 1.48534 21.2327 0.466418 23.3753 0.125244V5.37068Z" fill="#0049E7"/>
<path d="M15.1797 7.62169H20.6494C20.8716 7.23364 21.1445 6.87865 21.4597 6.56415C22.3604 5.6657 23.6004 5.10842 24.9622 5.10842C26.3237 5.10842 27.5647 5.6657 28.4654 6.56415C29.3661 7.46262 29.9248 8.69949 29.9248 10.0587C29.9248 7.50031 30.901 5.15992 32.4996 3.39059C32.3661 3.2407 32.2276 3.09449 32.0857 2.95285C30.2593 1.13112 27.738 0 24.9622 0C22.1862 0 19.6657 1.13112 17.8394 2.95285C16.5672 4.22192 15.6305 5.82754 15.1797 7.62169Z" fill="#0049E7"/>
<path d="M23.3753 29.469C22.647 29.2206 21.9933 28.8078 21.4595 28.2754C20.5588 27.3768 19.9992 26.139 19.9992 24.7807V19.9133H14.8789V24.7807C14.8789 27.5498 16.0129 30.0648 17.8392 31.8867C19.3096 33.3543 21.2318 34.3731 23.3753 34.7136V29.469Z" fill="#0049E7"/>
<path d="M0.160156 27.2783H5.62986C5.85204 27.6655 6.12493 28.0206 6.44022 28.3349C7.34092 29.2333 8.58089 29.7906 9.94258 29.7906C11.3042 29.7906 12.5451 29.2333 13.4458 28.3349C14.3465 27.4365 14.9052 26.1996 14.9052 24.8413C14.9052 27.3998 15.8815 29.7391 17.4801 31.5085C17.3464 31.6584 17.2081 31.8046 17.0662 31.9464C15.2399 33.768 12.7184 34.899 9.94258 34.899C7.1667 34.899 4.64525 33.768 2.81895 31.9464C1.54671 30.6771 0.610971 29.0715 0.160156 27.2783Z" fill="#0049E7"/>
</g>
<defs>
<linearGradient id="paint0_linear_2447_1448" x1="-6.87839" y1="34.5385" x2="55.572" y2="-1.29729" gradientUnits="userSpaceOnUse">
<stop stop-color="#54CDEE"/>
<stop offset="0.49" stop-color="#0463EF"/>
<stop offset="1" stop-color="#51F5EA"/>
</linearGradient>
<linearGradient id="paint1_linear_2447_1448" x1="-5.90901" y1="36.2287" x2="56.5414" y2="0.393059" gradientUnits="userSpaceOnUse">
<stop stop-color="#F98AFE"/>
<stop offset="0.49" stop-color="#0463EF"/>
<stop offset="1" stop-color="#51F5EA"/>
</linearGradient>
<linearGradient id="paint2_linear_2447_1448" x1="-6.51184" y1="35.1766" x2="55.9387" y2="-0.658154" gradientUnits="userSpaceOnUse">
<stop stop-color="#F98AFE"/>
<stop offset="0.49" stop-color="#0463EF"/>
<stop offset="1" stop-color="#51F5EA"/>
</linearGradient>
<linearGradient id="paint3_linear_2447_1448" x1="-6.39516" y1="35.3837" x2="56.0553" y2="-0.452065" gradientUnits="userSpaceOnUse">
<stop stop-color="#5CDDFF"/>
<stop offset="0.49" stop-color="#0463EF"/>
<stop offset="1" stop-color="#51F5EA"/>
</linearGradient>
<clipPath id="clip0_2447_1448">
<rect width="150" height="36" fill="white"/>
</clipPath>
</defs>
</svg>
