<svg width="18" height="17" viewBox="0 0 18 17" fill="none" xmlns="http://www.w3.org/2000/svg">
<path d="M17.9992 8.15535C17.9541 7.07528 17.0541 6.22022 15.9515 6.24272C15.4565 6.26522 15.0065 6.46774 14.6689 6.78276C13.1388 5.72519 11.3162 5.16265 9.44858 5.11764L10.3261 0.909865L13.2288 1.4949C13.3188 2.23745 13.9714 2.77749 14.7139 2.68748C15.4565 2.59748 15.9965 1.94493 15.9065 1.20238C15.8165 0.459836 15.164 -0.0802007 14.4214 0.00980526C13.9939 0.0548083 13.6114 0.302325 13.4088 0.662349L10.1011 0.00980526C9.87611 -0.0351977 9.6511 0.0998114 9.60609 0.324826L8.61603 5.02764C6.7259 5.05014 4.90328 5.63518 3.32817 6.69275C2.54062 5.9502 1.28054 5.9727 0.537988 6.78276C-0.204562 7.57031 -0.18206 8.83039 0.627994 9.57294C0.785504 9.70795 0.965516 9.84296 1.16803 9.93297C1.14553 10.1355 1.14553 10.338 1.16803 10.518C1.16803 13.5557 4.70077 16.0309 9.06606 16.0309C13.4313 16.0309 16.9641 13.5782 16.9641 10.518C16.9866 10.3155 16.9866 10.113 16.9641 9.93297C17.5941 9.61795 18.0217 8.9204 17.9992 8.15535ZM4.43075 9.52794C4.43075 8.78539 5.03829 8.17785 5.78084 8.17785C6.52339 8.17785 7.13093 8.78539 7.13093 9.52794C7.13093 10.2705 6.52339 10.878 5.78084 10.878C5.03829 10.878 4.43075 10.2705 4.43075 9.52794ZM12.3063 13.2632C11.3387 13.9832 10.1686 14.3658 8.97605 14.2983C7.78347 14.3433 6.59089 13.9832 5.64583 13.2632C5.51082 13.1057 5.53332 12.8807 5.69083 12.7457C5.82584 12.6331 6.00585 12.6331 6.16336 12.7457C6.97342 13.3307 7.96348 13.6457 8.97605 13.6007C9.98862 13.6457 10.9787 13.3757 11.8112 12.7682C11.9688 12.6331 12.1938 12.6331 12.3513 12.7682C12.4863 12.9257 12.4863 13.1507 12.3513 13.3082V13.2632H12.3063ZM12.0813 10.9455C11.3387 10.9455 10.7312 10.338 10.7312 9.59544C10.7312 8.85289 11.3387 8.24535 12.0813 8.24535C12.8238 8.24535 13.4313 8.85289 13.4313 9.59544C13.4538 10.338 12.8913 10.968 12.1263 10.9905C12.1038 10.9905 12.0813 10.9905 12.0588 10.9905L12.0813 10.9455Z" fill="white"/>
</svg>
