<svg width="25" height="24" viewBox="0 0 25 24" fill="none" xmlns="http://www.w3.org/2000/svg">
<path d="M14.9676 15.0206C15.1164 15.2894 15.3498 15.5042 15.6255 15.6232C15.8166 15.6993 16.3898 15.8171 16.3995 15.8171C17.0259 15.9361 18.0442 16 19.1688 16C20.2403 16 21.2162 15.9361 21.8524 15.8392C21.8632 15.8282 22.5732 15.7092 22.8174 15.5803C23.2636 15.3434 23.5394 14.8807 23.5394 14.3849V14.3419C23.5285 14.0191 23.2528 13.3415 23.2419 13.3415C22.7751 12.2001 21.3226 9.94922 20.3564 9.04579C20.3564 9.04579 20.1078 8.79018 19.9537 8.68001C19.7312 8.50703 19.4554 8.42109 19.1786 8.42109C18.8714 8.42109 18.5859 8.51805 18.3514 8.70094C18.309 8.74391 18.1288 8.90586 17.9801 9.0557C17.0476 9.9393 15.5191 12.2431 15.0534 13.4484C14.9785 13.6313 14.8189 14.0951 14.8092 14.3419C14.8092 14.5788 14.8613 14.8057 14.9676 15.0206Z" fill="white"/>
<path d="M1.809 13.524C1.94203 13.7644 2.15079 13.9566 2.39742 14.063C2.56831 14.131 3.08099 14.2364 3.08973 14.2364C3.64999 14.3429 4.56078 14.4 5.56672 14.4C6.52508 14.4 7.398 14.3429 7.967 14.2562C7.97671 14.2463 8.61174 14.1399 8.83021 14.0246C9.22928 13.8127 9.47592 13.3988 9.47592 12.9554V12.9169C9.46621 12.6282 9.21957 12.0221 9.20987 12.0221C8.79234 11.0012 7.49316 8.98792 6.62898 8.17985C6.62898 8.17985 6.40662 7.95122 6.26874 7.85268C6.06969 7.69796 5.82306 7.62109 5.57546 7.62109C5.30067 7.62109 5.0453 7.70781 4.83557 7.8714C4.7977 7.90983 4.63652 8.05469 4.50349 8.18871C3.66941 8.97905 2.30226 11.0396 1.88571 12.1177C1.81871 12.2813 1.67598 12.6962 1.66724 12.9169C1.66724 13.1288 1.71384 13.3318 1.809 13.524Z" fill="white"/>
<g opacity="0.4">
<path d="M12.1696 2.40002C11.4752 2.40002 10.913 3.593 10.913 5.06668L10.5665 17.9488C10.5665 19.8268 11.2846 21.3473 12.1696 21.3473C13.0547 21.3473 13.7712 19.8268 13.7712 17.9488L13.4263 5.06668C13.4263 3.593 12.8641 2.40002 12.1696 2.40002Z" fill="white"/>
<path d="M12.2056 3.75433C12.2056 3.35521 11.8821 3.03167 11.4829 3.03167H3.03984C2.52097 3.03167 2.10034 3.45229 2.10034 3.97116C2.10034 4.14208 2.14573 4.31128 2.24021 4.45371C3.85521 6.88828 6.3994 6.65596 11.7635 4.41859C12.031 4.307 12.2056 4.0442 12.2056 3.75433Z" fill="white"/>
<path d="M12.2056 3.75433C12.2056 3.35521 12.5292 3.03167 12.9283 3.03167H21.3714C21.8902 3.03167 22.3109 3.45229 22.3109 3.97116C22.3109 4.14208 22.2655 4.31128 22.171 4.45371C20.556 6.88828 18.0118 6.65596 12.6477 4.41859C12.3802 4.307 12.2056 4.0442 12.2056 3.75433Z" fill="white"/>
</g>
</svg>
