<svg width="70" height="70" viewBox="0 0 70 70" fill="none" xmlns="http://www.w3.org/2000/svg">
<circle cx="34.9993" cy="34.9983" r="28.8596" fill="#00C087"/>
<path d="M69.0409 36.837C69.5425 36.864 69.9723 36.4792 69.9864 35.9771C70.2054 28.1405 67.7863 20.4559 63.1177 14.1579C62.8186 13.7543 62.2459 13.6851 61.8502 13.9946C61.4546 14.3042 61.3859 14.8752 61.6845 15.2791C66.0826 21.23 68.3655 28.4818 68.1693 35.879C68.156 36.3812 68.5393 36.8099 69.0409 36.837Z" fill="#00C087" fill-opacity="0.29"/>
<path d="M59.1056 10.8944C59.4608 10.5392 59.4616 9.96235 59.0973 9.6165C55.2162 5.93211 50.5417 3.18659 45.4337 1.59135C44.9542 1.4416 44.4508 1.72322 44.3135 2.20644C44.1763 2.68965 44.4573 3.19141 44.9365 3.34183C49.7465 4.85151 54.1494 7.43754 57.8105 10.9033C58.1753 11.2486 58.7504 11.2496 59.1056 10.8944Z" fill="#00C087" fill-opacity="0.29"/>
<path d="M39.6999 1.23507C39.7692 0.737546 39.4221 0.276845 38.9229 0.220543C35.1212 -0.208277 31.2748 -0.0108569 27.5369 0.804939C27.0461 0.91205 26.748 1.40587 26.8678 1.89369C26.9877 2.38151 27.4801 2.67854 27.971 2.57213C31.4847 1.8105 35.0989 1.625 38.6721 2.02289C39.1713 2.07848 39.6307 1.7326 39.6999 1.23507Z" fill="#00C087" fill-opacity="0.29"/>
<path d="M23.6764 2.84514C23.5095 2.37133 22.9897 2.12136 22.5204 2.30047C21.0512 2.86118 19.6215 3.52027 18.2409 4.27326C17.7999 4.51379 17.6524 5.07141 17.9043 5.506C18.1562 5.9406 18.7121 6.08753 19.1534 5.84763C20.4355 5.15071 21.7622 4.53913 23.1248 4.01687C23.5939 3.83709 23.8432 3.31894 23.6764 2.84514Z" fill="#00C087" fill-opacity="0.29"/>
<path d="M14.6509 7.64903C14.3511 7.24601 13.7805 7.16142 13.3854 7.47164C13.0421 7.74118 12.7039 8.01713 12.3709 8.29933C11.9877 8.6241 11.9561 9.20004 12.2907 9.57468C12.6253 9.94932 13.1995 9.98075 13.5831 9.65652C13.8751 9.40978 14.1713 9.1681 14.4717 8.9316C14.8663 8.62082 14.9508 8.05204 14.6509 7.64903Z" fill="#00C087" fill-opacity="0.29"/>
<path d="M48.8663 25.1762C48.6741 24.981 48.4453 24.8261 48.1933 24.7203C47.9413 24.6146 47.671 24.5602 47.398 24.5602C47.125 24.5602 46.8547 24.6146 46.6027 24.7203C46.3506 24.8261 46.1219 24.981 45.9297 25.1762L30.5226 40.7117L24.0495 34.1726C23.8499 33.9784 23.6143 33.8258 23.356 33.7233C23.0978 33.6208 22.8221 33.5706 22.5446 33.5754C22.2671 33.5803 21.9933 33.6401 21.7388 33.7515C21.4842 33.8629 21.254 34.0237 21.0611 34.2247C20.8683 34.4257 20.7167 34.663 20.6149 34.923C20.5132 35.183 20.4633 35.4606 20.4681 35.7401C20.4729 36.0195 20.5323 36.2952 20.6429 36.5516C20.7536 36.8079 20.9132 37.0397 21.1129 37.2339L29.0542 45.2307C29.2465 45.4259 29.4752 45.5808 29.7272 45.6866C29.9792 45.7923 30.2495 45.8467 30.5226 45.8467C30.7956 45.8467 31.0659 45.7923 31.3179 45.6866C31.5699 45.5808 31.7986 45.4259 31.9909 45.2307L48.8663 28.2375C49.0762 28.0425 49.2438 27.8058 49.3584 27.5423C49.4729 27.2789 49.5321 26.9944 49.5321 26.7068C49.5321 26.4192 49.4729 26.1347 49.3584 25.8713C49.2438 25.6079 49.0762 25.3712 48.8663 25.1762Z" fill="white"/>
</svg>
