<?xml version="1.0" encoding="iso-8859-1"?>
<!-- Generator: Adobe Illustrator 19.0.0, SVG Export Plug-In . SVG Version: 6.00 Build 0)  -->
<svg width="41" height="41"  version="1.1" id="Layer_1" xmlns="http://www.w3.org/2000/svg" xmlns:xlink="http://www.w3.org/1999/xlink" x="0px" y="0px"
	 viewBox="0 0 297.001 297.001" style="enable-background:new 0 0 297.001 297.001;" xml:space="preserve">
<g>
	<g>
		<g>
			<g>
				<circle style="fill:#C63C22;" cx="148.501" cy="148.5" r="148.5"/>
			</g>
		</g>
	</g>
	<path style="fill:#931515;" d="M296.994,148.005l-73.666-73.666L74.36,223.308l73.687,73.687c0.152,0,0.302,0.006,0.454,0.006
		c82.014,0,148.5-66.486,148.5-148.5C297,148.335,296.995,148.171,296.994,148.005z"/>
	<g>
		<path style="fill:#662621;" d="M93.335,66h110.333c15.095,0,27.333,12.238,27.333,27.334v110.333
			c0,15.095-12.238,27.333-27.333,27.333H93.335c-15.096,0-27.334-12.238-27.334-27.333V93.334C66.001,78.238,78.239,66,93.335,66z"
			/>
	</g>
	<polygon style="fill:#ECF0F1;" points="195.523,121.276 175.724,101.478 148.501,128.701 121.277,101.478 101.478,121.276 
		128.702,148.5 101.478,175.724 121.277,195.522 148.501,168.299 175.724,195.522 195.523,175.724 168.299,148.5 	"/>
</g>
<g>
</g>
<g>
</g>
<g>
</g>
<g>
</g>
<g>
</g>
<g>
</g>
<g>
</g>
<g>
</g>
<g>
</g>
<g>
</g>
<g>
</g>
<g>
</g>
<g>
</g>
<g>
</g>
<g>
</g>
</svg>
