<svg width="22" height="19" viewBox="0 0 22 19" fill="none" xmlns="http://www.w3.org/2000/svg">
<path d="M18.5937 8.57011V7.57826C18.5915 5.93534 17.2806 4.60344 15.6627 4.60195H13.7084V3.6101C13.7062 1.96717 12.3953 0.635277 10.7774 0.633789H2.96106C1.34313 0.636021 0.0314948 1.96717 0.0300293 3.6101V15.5153C0.0314948 17.1582 1.34313 18.4894 2.96106 18.4916H15.6627C17.2806 18.4894 18.5915 17.1582 18.5937 15.5153V14.5227C20.2124 14.5227 21.5247 13.1901 21.5247 11.5464C21.5247 9.90275 20.2124 8.57011 18.5937 8.57011ZM2.96106 2.6175H10.7774C11.3167 2.6175 11.7541 3.06171 11.7541 3.60935V4.60121H2.96106C2.60934 4.60493 2.27373 4.67189 1.96378 4.79095L1.98356 4.78425V3.60935C1.98356 3.06171 2.42102 2.6175 2.96033 2.6175H2.96106ZM16.6394 15.5153C16.6394 16.063 16.202 16.5072 15.6627 16.5072H2.96179C2.42248 16.5072 1.98503 16.063 1.98503 15.5153V7.57826C1.98503 7.03062 2.42248 6.5864 2.96179 6.5864H15.6627C16.202 6.5864 16.6394 7.03062 16.6394 7.57826V8.57011H14.6852C13.0665 8.57011 11.7541 9.90275 11.7541 11.5464C11.7541 13.1901 13.0665 14.5227 14.6852 14.5227H16.6394V15.5153ZM18.5937 12.539H14.6859C14.1466 12.539 13.7091 12.0948 13.7091 11.5472C13.7091 10.9995 14.1466 10.5553 14.6859 10.5553H18.5937C19.133 10.5553 19.5705 10.9995 19.5705 11.5472C19.5705 12.0948 19.133 12.539 18.5937 12.539Z" fill="#FFEEE3"/>
</svg>
