<svg width="39" height="40" viewBox="0 0 39 40" fill="none" xmlns="http://www.w3.org/2000/svg">
<rect x="0.375488" y="0.895813" width="38.2" height="38.2" rx="19.1" fill="white" fill-opacity="0.1"/>
<path d="M24.9824 23.6995C25.1864 23.897 25.3132 24.1733 25.3132 24.4789C25.3132 25.0771 24.828 25.5623 24.2298 25.5623C23.9242 25.5623 23.6478 25.4356 23.4503 25.2315L19.8815 21.6627L16.3126 25.2315C16.1151 25.4356 15.8388 25.5623 15.5332 25.5623C14.935 25.5623 14.4498 25.0771 14.4498 24.4789C14.4498 24.1733 14.5766 23.897 14.7806 23.6995L18.3494 20.1306L14.7806 16.5618C14.5766 16.3643 14.4498 16.0879 14.4498 15.7823C14.4498 15.1841 14.935 14.6989 15.5332 14.6989C15.8388 14.6989 16.1151 14.8257 16.3126 15.0297L19.8815 18.5986L23.4503 15.0297C23.6478 14.8257 23.9242 14.6989 24.2298 14.6989C24.828 14.6989 25.3132 15.1841 25.3132 15.7823C25.3132 16.0879 25.1864 16.3643 24.9824 16.5618L21.4135 20.1306L24.9824 23.6995Z" fill="white"/>
</svg>
