<svg width="60" height="60" viewBox="0 0 60 60" fill="none" xmlns="http://www.w3.org/2000/svg">
<path opacity="0.4" d="M54.9998 29.9995C54.9998 43.8095 43.8073 54.9995 29.9998 54.9995C16.1923 54.9995 4.99976 43.8095 4.99976 29.9995C4.99976 16.1945 16.1923 4.99951 29.9998 4.99951C43.8073 4.99951 54.9998 16.1945 54.9998 29.9995Z" fill="#2042B8"/>
<path d="M29.9875 37.3212C31.22 37.3212 32.2 38.3037 32.2 39.5087C32.2 40.7137 31.22 41.6962 30.0125 41.6962C28.8 41.6962 27.8125 40.7137 27.8125 39.5087C27.8125 38.3037 28.79 37.3212 29.9875 37.3212ZM29.9875 18.3392C31.1925 18.3392 32.175 19.3217 32.175 20.5267V31.5767C32.175 32.7817 31.1925 33.7642 29.9875 33.7642C28.7825 33.7642 27.8 32.7817 27.8 31.5767V20.5267C27.8 19.3217 28.7825 18.3392 29.9875 18.3392Z" fill="#2042B8"/>
</svg>
