<svg width="34" height="34" viewBox="0 0 34 34" fill="none" xmlns="http://www.w3.org/2000/svg">
<path fill-rule="evenodd" clip-rule="evenodd" d="M4.07805 5.4948C2.83325 6.73959 2.83325 8.74306 2.83325 12.75V21.25C2.83325 25.2569 2.83325 27.2604 4.07805 28.5052C5.32284 29.75 7.32632 29.75 11.3333 29.75H25.4999C26.8174 29.75 27.4761 29.75 28.0166 29.6052C29.4832 29.2122 30.6288 28.0666 31.0218 26.6C31.1666 26.0595 31.1666 25.4008 31.1666 24.0833H22.6666C20.3194 24.0833 18.4166 22.1805 18.4166 19.8333C18.4166 17.4861 20.3194 15.5833 22.6666 15.5833H31.1666V12.75C31.1666 8.74306 31.1666 6.73959 29.9218 5.4948C28.677 4.25 26.6735 4.25 22.6666 4.25H11.3333C7.32631 4.25 5.32284 4.25 4.07805 5.4948ZM9.91652 9.91666C9.13412 9.91666 8.49986 10.5509 8.49986 11.3333C8.49986 12.1157 9.13412 12.75 9.91652 12.75H14.1665C14.9489 12.75 15.5832 12.1157 15.5832 11.3333C15.5832 10.5509 14.9489 9.91666 14.1665 9.91666H9.91652Z" fill="white"/>
<path d="M24.0834 19.8333H22.6667" stroke="white" stroke-width="2.83333" stroke-linecap="round"/>
</svg>
