<svg width="77" height="26" viewBox="0 0 77 26" fill="none" xmlns="http://www.w3.org/2000/svg">
<path d="M24.1414 14.5919H30.6648V16.005H25.8179V19.0286H30.0551V20.4569H25.8179V24.7265H24.1414V14.5919Z" fill="white"/>
<path d="M32.4748 14.4399H34.1819V15.8834H32.4748V14.4399ZM32.5206 17.1445H34.1209L34.1362 24.7265H32.5206V17.1445Z" fill="white"/>
<path d="M36.4341 17.7219C36.8913 17.4889 37.4451 17.3015 38.0954 17.1597C38.7559 17.0078 39.3859 16.9318 39.9854 16.9318C41.0523 16.9318 41.8398 17.1547 42.3479 17.6004C42.8559 18.0461 43.1099 18.7399 43.1099 19.682V24.7265H41.5096V19.8947C41.5096 18.8311 40.905 18.2993 39.6958 18.2993C39.1166 18.2993 38.5628 18.3955 38.0345 18.588V24.7265H36.4341V17.7219Z" fill="white"/>
<path d="M48.6722 16.9318C49.5054 16.9318 50.2116 17.1344 50.7908 17.5396C51.3801 17.9346 51.6697 18.5779 51.6595 19.4693V23.1159C51.6595 23.8047 51.3547 24.2859 50.745 24.5594C50.1354 24.8227 49.2666 24.9544 48.1387 24.9544C47.2344 24.9544 46.4876 24.767 45.8982 24.3922C45.3089 24.0174 45.0142 23.3894 45.0142 22.5081C45.0142 21.6775 45.253 21.0545 45.7305 20.6392C46.2183 20.2239 46.9042 20.0163 47.7882 20.0163C48.7027 20.0163 49.4648 20.1986 50.0744 20.5633V19.8339C50.0744 18.8007 49.4495 18.2841 48.1997 18.2841C47.7526 18.2841 47.3055 18.355 46.8584 18.4968C46.4113 18.6285 46.0405 18.8159 45.7458 19.059V17.57C46.0303 17.3876 46.4418 17.2357 46.9804 17.1141C47.5291 16.9926 48.093 16.9318 48.6722 16.9318ZM48.3216 23.7085C48.9618 23.7085 49.4139 23.6629 49.6781 23.5717C49.9423 23.4806 50.0744 23.2982 50.0744 23.0247V21.5509C49.5562 21.328 48.9872 21.2166 48.3673 21.2166C47.7882 21.2166 47.3462 21.3179 47.0413 21.5205C46.7467 21.7231 46.5993 22.027 46.5993 22.4322C46.5993 22.8576 46.767 23.1767 47.1023 23.3894C47.4478 23.6021 47.8542 23.7085 48.3216 23.7085Z" fill="white"/>
<path d="M53.9233 17.7219C54.3805 17.4889 54.9343 17.3015 55.5846 17.1597C56.2451 17.0078 56.8751 16.9318 57.4746 16.9318C58.5415 16.9318 59.329 17.1547 59.837 17.6004C60.3451 18.0461 60.5991 18.7399 60.5991 19.682V24.7265H58.9988V19.8947C58.9988 18.8311 58.3942 18.2993 57.185 18.2993C56.6058 18.2993 56.052 18.3955 55.5237 18.588V24.7265H53.9233V17.7219Z" fill="white"/>
<path d="M66.2223 24.8784C65.1453 24.8784 64.246 24.5695 63.5246 23.9516C62.8133 23.3337 62.4577 22.3359 62.4577 20.9583C62.4577 19.5402 62.8082 18.5171 63.5093 17.8891C64.2206 17.2509 65.1199 16.9318 66.2071 16.9318C67.0301 16.9318 67.8125 17.0838 68.5543 17.3876V18.8159C67.7821 18.4918 67.0759 18.3297 66.4357 18.3297C65.633 18.3297 65.0335 18.5323 64.6372 18.9375C64.2409 19.3325 64.0428 19.9656 64.0428 20.8368C64.0428 21.7484 64.2358 22.417 64.622 22.8424C65.0081 23.2577 65.6279 23.4654 66.4814 23.4654C67.1724 23.4654 67.8684 23.2982 68.5695 22.964V24.3922C67.838 24.7164 67.0555 24.8784 66.2223 24.8784Z" fill="white"/>
<path d="M73.5702 16.9166C74.7591 16.9166 75.6279 17.3015 76.1766 18.0714C76.7354 18.8311 77.0098 19.8998 76.9996 21.2774H71.6346C71.6854 22.027 71.9038 22.5993 72.2899 22.9943C72.6862 23.3793 73.2451 23.5717 73.9665 23.5717C74.4339 23.5717 74.881 23.516 75.3078 23.4046C75.7346 23.283 76.1105 23.1311 76.4357 22.9488V24.4378C75.6431 24.7822 74.7337 24.9544 73.7074 24.9544C72.5592 24.9544 71.6549 24.61 70.9944 23.9212C70.3441 23.2223 70.0189 22.2346 70.0189 20.9583C70.0189 19.6516 70.3289 18.6538 70.9487 17.965C71.5685 17.2661 72.4424 16.9166 73.5702 16.9166ZM73.5245 18.2233C72.986 18.2233 72.5643 18.3651 72.2595 18.6488C71.9546 18.9324 71.7565 19.4136 71.665 20.0922H75.3688C75.2976 19.4439 75.1147 18.9729 74.8201 18.6792C74.5254 18.3753 74.0935 18.2233 73.5245 18.2233Z" fill="white"/>
<path d="M17.6156 0C19.2317 0 20.5419 1.30606 20.5419 2.91716V22.7538C20.5419 24.3649 19.2317 25.671 17.6156 25.671C15.9995 25.671 14.6894 24.3649 14.6894 22.7538V2.91715C14.6894 1.30605 15.9995 0 17.6156 0Z" fill="white"/>
<path d="M9.68574 8.16806C11.1563 8.16806 12.3484 9.35647 12.3484 10.8224V17.9008C12.3484 19.3668 11.1563 20.5552 9.68574 20.5552C8.2152 20.5552 7.0231 19.3668 7.0231 17.9008V10.8224C7.0231 9.35646 8.2152 8.16806 9.68574 8.16806Z" fill="white"/>
<path d="M5.32529 7.32185C5.32529 5.85588 4.13319 4.66747 2.66265 4.66747C1.19211 4.66747 0 5.85587 0 7.32185V8.20664C0 9.67262 1.19211 10.861 2.66265 10.861C4.13319 10.861 5.32529 9.67262 5.32529 8.20664V7.32185Z" fill="white"/>
<path d="M9.68574 1.16688C11.1563 1.16688 12.3484 2.35529 12.3484 3.82126V4.70605C12.3484 6.17203 11.1563 7.36044 9.68574 7.36044C8.2152 7.36044 7.0231 6.17203 7.0231 4.70605V3.82126C7.0231 2.35528 8.2152 1.16688 9.68574 1.16688Z" fill="white"/>
<path d="M30.6912 9.51047L28.6316 6.50191L26.8008 9.51047H24.2978L27.4587 4.77662L24.1833 0H27.0582L29.1322 3.02282L30.9057 0H33.466L30.3336 4.77662L33.5661 9.51047H30.6912Z" fill="white"/>
<path d="M34.7348 0H41.2713V1.78232H37.0519V3.84982H40.7135V5.6464H37.0519V7.72815H41.2713V9.51047H34.7348V0Z" fill="white"/>
<path d="M51.5376 0V9.51047H49.7926L45.3444 3.72149V9.51047H43.2132V0H45.187L49.4064 5.66065V0H51.5376Z" fill="white"/>
<path d="M53.5633 0H57.3965C58.9985 0 60.1856 0.39924 60.958 1.19772C61.7303 1.9867 62.1165 3.17491 62.1165 4.76236C62.1165 6.34031 61.7303 7.52853 60.958 8.32701C60.1856 9.11598 58.9985 9.51047 57.3965 9.51047H53.5633V0ZM57.1248 7.72815C57.9925 7.72815 58.6457 7.48575 59.0843 7.00096C59.5229 6.51617 59.7422 5.76997 59.7422 4.76236C59.7422 3.73575 59.5229 2.9848 59.0843 2.50951C58.6457 2.02472 57.9925 1.78232 57.1248 1.78232H55.8804V7.72815H57.1248Z" fill="white"/>
</svg>
