<svg width="370" height="290" viewBox="0 0 370 290" fill="none" xmlns="http://www.w3.org/2000/svg">
<g filter="url(#filter0_d_280_12)">
<rect x="40" y="26" width="290" height="210" rx="8" fill="#EB6003"/>
</g>
<mask id="mask0_280_12" style="mask-type:alpha" maskUnits="userSpaceOnUse" x="40" y="26" width="290" height="210">
<rect x="40" y="26" width="290" height="210" rx="8" fill="#FF6600"/>
</mask>
<g mask="url(#mask0_280_12)">
<path d="M-41.0279 115.806C86.1432 167.883 225.506 -128.646 225.506 -128.646L-166.487 -131C-166.487 -131 -135.571 77.0908 -41.0279 115.806Z" fill="url(#paint0_linear_280_12)"/>
<path d="M337.061 4.9515C209.58 -46.3608 72 251 72 251L464 251C464 251 431.835 43.0987 337.061 4.9515Z" fill="url(#paint1_linear_280_12)"/>
</g>
<defs>
<filter id="filter0_d_280_12" x="0" y="0" width="370" height="290" filterUnits="userSpaceOnUse" color-interpolation-filters="sRGB">
<feFlood flood-opacity="0" result="BackgroundImageFix"/>
<feColorMatrix in="SourceAlpha" type="matrix" values="0 0 0 0 0 0 0 0 0 0 0 0 0 0 0 0 0 0 127 0" result="hardAlpha"/>
<feOffset dy="14"/>
<feGaussianBlur stdDeviation="20"/>
<feComposite in2="hardAlpha" operator="out"/>
<feColorMatrix type="matrix" values="0 0 0 0 0 0 0 0 0 0 0 0 0 0 0 0 0 0 0.1 0"/>
<feBlend mode="normal" in2="BackgroundImageFix" result="effect1_dropShadow_280_12"/>
<feBlend mode="normal" in="SourceGraphic" in2="effect1_dropShadow_280_12" result="shape"/>
</filter>
<linearGradient id="paint0_linear_280_12" x1="18.5" y1="71" x2="8.50001" y2="21" gradientUnits="userSpaceOnUse">
<stop stop-color="#FCB25B"/>
<stop offset="1" stop-color="#FCB25B" stop-opacity="0.22"/>
</linearGradient>
<linearGradient id="paint1_linear_280_12" x1="268" y1="-1" x2="268" y2="207.5" gradientUnits="userSpaceOnUse">
<stop stop-color="#FCB25B"/>
<stop offset="1" stop-color="#FCB25B" stop-opacity="0.05"/>
</linearGradient>
</defs>
</svg>
