<svg width="39" height="9" viewBox="0 0 39 9" fill="none" xmlns="http://www.w3.org/2000/svg">
<path fill-rule="evenodd" clip-rule="evenodd" d="M3.03093 7.39028C3.33073 7.39028 3.61119 7.33548 3.87553 7.2291C3.87553 7.23877 4.41389 8.0737 4.42356 8.07692C3.94708 8.33219 3.41347 8.46199 2.87297 8.45409C1.21923 8.45732 0.0200195 7.36449 0.0200195 5.62693C0.0200195 3.87648 1.27725 2.7901 2.87297 2.7901C3.43711 2.7901 3.8852 2.9126 4.33329 3.15115L3.81751 4.02154C3.54672 3.91516 3.26948 3.86681 2.97935 3.86681C2.00258 3.86681 1.24502 4.48897 1.24502 5.62693C1.24502 6.70364 1.97679 7.39028 3.03093 7.39028ZM7.19914 2.7901C8.82387 2.7901 10.0005 3.94095 10.0005 5.62693C10.0005 7.30324 8.82387 8.45409 7.19592 8.45409C5.58408 8.45409 4.40744 7.30324 4.40744 5.62693C4.40744 3.94095 5.58408 2.7901 7.19914 2.7901ZM7.19914 3.82812C6.29329 3.82812 5.63244 4.52766 5.63244 5.62693C5.63244 6.71653 6.29329 7.41607 7.19914 7.41607C8.12756 7.41607 8.77874 6.71653 8.77874 5.62693C8.77874 4.52766 8.12756 3.82812 7.19914 3.82812ZM10.771 8.33159V2.9126H11.9831V8.32837H10.771V8.33159ZM10.6098 1.24596C10.6224 1.05316 10.7078 0.872371 10.8488 0.740274C10.9898 0.608176 11.1758 0.534668 11.369 0.534668C11.5622 0.534668 11.7481 0.608176 11.8891 0.740274C12.0301 0.872371 12.1156 1.05316 12.1281 1.24596C12.1282 1.44839 12.0489 1.64277 11.9073 1.78741C11.7656 1.93205 11.573 2.01542 11.3706 2.01964C11.1682 2.01542 10.9755 1.93205 10.8339 1.78741C10.6923 1.64277 10.613 1.44839 10.613 1.24596H10.6098ZM13.0404 3.25431C13.8344 2.95588 14.6745 2.79877 15.5227 2.7901C16.9088 2.7901 17.7857 3.31556 17.7857 4.84358V8.33159H16.5897V4.95641C16.5897 4.17305 16.1029 3.8926 15.4292 3.8926C15.0004 3.8926 14.5717 3.95062 14.2525 4.05055V8.32837H13.0437V3.25431H13.0404ZM18.8011 0.0112915H20.0132V3.05766C20.2711 2.92227 20.7708 2.7901 21.2479 2.7901C22.8146 2.7901 23.988 3.78944 23.988 5.53022C23.988 7.28068 22.8275 8.45409 20.8224 8.45409C20.039 8.45409 19.3524 8.29291 18.8011 8.09949V0.0112915ZM20.0132 7.30324C20.2453 7.37739 20.5516 7.41607 20.8578 7.41607C21.97 7.41607 22.7663 6.80357 22.7663 5.55601C22.7663 4.50187 22.0184 3.8797 21.1028 3.8797C20.6257 3.8797 20.2582 4.0022 20.0132 4.13759V7.30324ZM27.4922 4.69851C27.4922 4.1118 27.0473 3.84102 26.4477 3.84102C25.8255 3.84102 25.3355 4.02477 24.8842 4.28266V3.22852C25.4241 2.93511 26.0299 2.78422 26.6443 2.7901C27.8307 2.7901 28.6753 3.2801 28.6753 4.63726V8.22199C28.1595 8.35738 27.4277 8.4412 26.8152 8.4412C25.4097 8.4412 24.3813 8.01567 24.3813 6.79068C24.3813 5.68818 25.3226 5.14983 26.8893 5.14983H27.4889V4.69851H27.4922ZM27.4922 5.95575H26.9764C26.1318 5.95575 25.5805 6.20397 25.5805 6.75522C25.5805 7.31614 26.0963 7.53535 26.8281 7.53535C27.0118 7.53535 27.2697 7.51278 27.4889 7.47732V5.95897L27.4922 5.95575ZM29.5553 6.86482C30.0277 7.2391 30.6068 7.45359 31.2091 7.47732C31.7474 7.47732 32.102 7.29357 32.102 6.86482C32.102 6.42318 31.7829 6.26522 31.0866 6.08147C29.9583 5.82358 29.4844 5.37226 29.4844 4.42772C29.4844 3.32845 30.3161 2.7901 31.4186 2.7901C32.0311 2.7901 32.5179 2.92227 32.9724 3.20595V4.31812C32.5404 3.97332 32.0067 3.78069 31.4541 3.7701C30.9286 3.7701 30.6481 4.02799 30.6481 4.38259C30.6481 4.7372 30.877 4.91772 31.5024 5.0918C32.7403 5.35937 33.2754 5.82358 33.2754 6.80035C33.2754 7.94153 32.4083 8.45409 31.2349 8.45409C30.6463 8.46584 30.066 8.31407 29.5585 8.01567V6.86482H29.5553ZM34.9356 5.89772V5.92029C35.0098 6.88739 35.8383 7.41607 36.6861 7.41607C37.4308 7.41607 37.9691 7.24199 38.5075 6.88739V7.9512C38.0175 8.29613 37.2954 8.45409 36.599 8.45409C34.9098 8.45409 33.7622 7.37739 33.7622 5.66562C33.7622 3.94095 34.8873 2.7901 36.3798 2.7901C37.9594 2.7901 38.7041 3.80556 38.7041 5.28522V5.89772H34.9324H34.9356ZM37.5661 5.11437C37.5404 4.26976 37.1245 3.80556 36.3412 3.80556C35.6448 3.80556 35.1323 4.29555 34.9711 5.11437H37.5661Z" fill="#0667D0"/>
</svg>
